<?xml version="1.0" standalone="no"?>
<!DOCTYPE svg PUBLIC "-//W3C//DTD SVG 20010904//EN"
 "http://www.w3.org/TR/2001/REC-SVG-20010904/DTD/svg10.dtd">
<svg version="1.0" xmlns="http://www.w3.org/2000/svg"
 width="450.000000pt" height="450.000000pt" viewBox="0 0 450.000000 450.000000"
 preserveAspectRatio="xMidYMid meet">
<metadata>
Created by potrace 1.11, written by Peter Selinger 2001-2013
</metadata>
<g transform="translate(0.000000,450.000000) scale(0.100000,-0.100000)"
fill="#000000" stroke="none">
<path d="M2077 4234 c-2 -2 -23 -5 -48 -8 -24 -2 -75 -9 -114 -16 -38 -6 -79
-13 -90 -14 -11 -2 -40 -9 -65 -16 -25 -6 -52 -14 -60 -16 -8 -2 -36 -10 -62
-18 -27 -8 -48 -13 -48 -10 0 2 -10 -2 -22 -10 -19 -11 -83 -36 -108 -41 -3
-1 -38 -18 -78 -37 -40 -20 -74 -36 -75 -36 -4 1 -99 -56 -148 -90 -27 -18
-49 -30 -49 -27 0 9 -194 -157 -256 -219 -67 -68 -210 -236 -213 -251 -3 -13
-91 -155 -109 -177 -8 -10 -12 -18 -9 -18 4 0 -10 -33 -30 -72 -20 -40 -36
-74 -35 -75 0 -1 -9 -26 -20 -55 -11 -29 -26 -74 -33 -100 -7 -25 -16 -51 -20
-57 -3 -6 -8 -23 -11 -36 -2 -14 -6 -35 -9 -48 -19 -89 -27 -126 -30 -152 -26
-176 -25 -541 1 -635 2 -8 6 -35 10 -60 9 -66 11 -73 17 -90 9 -25 42 -154 42
-165 0 -5 3 -12 6 -15 3 -3 19 -41 34 -85 16 -44 42 -103 57 -131 15 -29 24
-54 21 -58 -4 -3 -2 -6 4 -6 6 0 16 -12 22 -27 6 -16 20 -41 31 -58 11 -16 24
-39 30 -50 15 -30 34 -58 46 -70 6 -5 22 -26 35 -45 13 -19 36 -48 51 -65 15
-16 28 -33 28 -36 0 -7 179 -189 186 -189 3 0 15 -9 27 -21 12 -12 47 -40 77
-62 30 -22 57 -44 58 -49 2 -4 7 -6 12 -3 4 2 15 -4 25 -15 10 -11 22 -20 26
-20 4 0 27 -13 51 -29 24 -16 53 -32 66 -35 12 -4 22 -12 22 -17 0 -5 3 -8 8
-7 4 1 36 -12 72 -29 73 -35 329 -123 358 -123 10 0 22 -3 26 -7 3 -4 14 -8
24 -9 43 -5 108 -15 122 -18 70 -20 420 -27 540 -12 36 5 74 10 85 11 11 1 27
5 35 8 8 4 33 8 55 11 22 2 60 11 85 19 25 7 48 14 52 16 4 1 13 3 20 6 7 2
31 9 53 15 22 6 54 18 70 25 70 31 105 44 105 39 0 -3 13 4 29 15 16 12 55 33
87 49 66 31 117 63 219 137 39 29 74 53 80 56 5 2 9 7 8 11 -2 5 1 7 6 5 10
-2 152 134 241 230 30 33 80 97 110 142 30 46 68 101 85 124 16 23 30 47 31
52 1 6 20 43 43 84 23 41 41 77 41 81 0 5 13 39 30 78 51 121 111 355 127 497
16 146 6 449 -19 570 -6 28 -12 62 -13 77 -2 14 -6 31 -10 37 -3 6 -9 24 -11
39 -8 44 -74 235 -90 260 -8 12 -12 27 -9 31 3 5 2 11 -3 13 -4 1 -23 32 -41
68 -35 68 -101 181 -110 190 -14 12 -51 70 -51 80 0 5 -4 10 -9 10 -4 0 -21
19 -37 42 -35 51 -249 268 -264 268 -6 0 -8 5 -4 12 4 6 3 8 -3 5 -5 -3 -28
11 -51 32 -23 21 -42 36 -42 33 0 -3 -10 4 -22 15 -28 25 -216 138 -246 147
-12 4 -22 12 -22 18 0 6 -3 9 -6 6 -3 -4 -31 5 -62 19 -81 36 -105 46 -120 49
-8 1 -21 6 -30 10 -9 4 -23 8 -30 10 -8 1 -21 6 -30 10 -9 4 -28 9 -42 11 -14
2 -39 8 -56 14 -99 31 -273 51 -467 54 -103 1 -188 0 -190 -1z m408 -88 c26
-5 129 -25 205 -41 65 -14 220 -68 220 -76 0 -6 4 -7 10 -4 5 3 22 0 37 -9 16
-8 60 -29 98 -47 39 -17 72 -35 75 -39 3 -4 15 -10 28 -14 12 -4 22 -11 22
-16 0 -4 11 -11 25 -14 14 -4 25 -11 25 -16 0 -6 4 -10 10 -10 13 0 130 -81
130 -91 0 -4 8 -10 19 -14 23 -7 238 -217 277 -270 16 -22 34 -44 40 -50 18
-17 84 -115 84 -125 0 -6 4 -10 9 -10 5 0 13 -9 16 -21 4 -12 14 -30 24 -40 9
-11 16 -23 16 -27 0 -4 12 -28 28 -54 15 -26 27 -49 27 -52 0 -3 11 -30 25
-60 42 -91 88 -229 101 -303 2 -12 9 -35 15 -50 6 -16 10 -29 9 -31 -2 -3 12
-114 17 -137 9 -37 10 -351 2 -416 -19 -138 -60 -326 -77 -354 -4 -5 -8 -18
-9 -28 -9 -56 -149 -347 -198 -412 -18 -23 -39 -53 -45 -66 -23 -44 -124 -163
-211 -249 -85 -84 -249 -218 -249 -204 0 4 -12 -4 -27 -18 -30 -28 -146 -99
-168 -102 -7 -1 -19 -7 -26 -13 -20 -16 -95 -52 -116 -57 -10 -1 -38 -12 -63
-24 -25 -11 -56 -23 -70 -26 -14 -2 -45 -12 -69 -20 -24 -9 -46 -14 -49 -11
-2 2 -13 0 -24 -6 -25 -14 -141 -34 -263 -46 -169 -17 -502 3 -589 37 -15 5
-38 10 -52 10 -13 0 -24 5 -24 11 0 5 -4 8 -9 5 -11 -7 -164 43 -172 56 -3 5
-10 9 -15 8 -5 0 -18 2 -29 6 -11 3 -22 7 -25 8 -15 4 -146 70 -150 76 -3 4
-15 10 -27 14 -13 4 -23 12 -23 17 0 6 -4 8 -9 5 -4 -3 -16 3 -26 14 -10 11
-21 17 -25 15 -4 -2 -15 4 -25 15 -10 11 -23 20 -29 20 -6 0 -28 16 -49 35
-21 19 -41 35 -45 35 -4 1 -29 21 -56 45 -28 25 -54 45 -58 45 -5 0 -7 4 -3 9
3 5 -4 12 -15 16 -11 3 -20 13 -20 21 0 8 -4 13 -8 12 -4 -2 -23 14 -42 35
-18 21 -47 53 -63 70 -42 45 -107 134 -107 147 0 5 -4 10 -9 10 -11 0 -117
181 -113 192 1 5 -2 8 -6 8 -5 0 -17 19 -27 42 -10 24 -31 71 -46 106 -16 34
-26 62 -23 62 2 0 0 9 -6 21 -6 11 -13 28 -15 37 -2 9 -13 46 -24 82 -24 80
-37 143 -45 231 -2 14 -5 30 -9 35 -7 12 -8 38 -9 219 0 118 2 159 15 265 14
110 32 191 63 278 4 9 8 26 10 37 1 11 10 38 20 60 10 22 19 46 20 54 5 27
107 227 138 271 18 25 35 52 38 60 13 35 134 184 221 273 94 97 278 247 301
247 8 0 19 7 27 16 11 13 154 98 169 99 3 1 33 15 67 33 35 18 66 31 70 30 5
-1 30 8 56 20 27 12 54 22 62 22 7 0 28 6 46 14 19 8 48 16 66 19 17 3 36 7
40 10 5 3 27 8 48 11 22 4 78 12 125 20 82 12 424 14 495 2z"/>
<path d="M1888 3788 c-7 -13 -17 -30 -23 -39 -5 -9 -25 -40 -43 -70 -18 -30
-53 -85 -77 -124 -24 -38 -44 -73 -45 -77 0 -5 11 -8 25 -8 26 0 32 -9 16 -25
-5 -6 -32 -49 -59 -97 l-50 -87 33 -3 33 -3 -51 -83 c-27 -45 -52 -80 -54 -78
-2 2 5 27 17 55 26 67 26 71 -10 71 -33 0 -40 19 -15 40 8 7 15 17 15 23 0 6
7 18 16 28 14 16 14 21 -8 58 -13 23 -26 41 -30 41 -4 0 -17 -17 -28 -37 -26
-48 -36 -64 -85 -138 l-41 -60 48 -79 c52 -87 61 -122 28 -113 -22 6 -25 -5
-9 -34 5 -11 9 -30 7 -42 -2 -18 -9 -11 -35 35 -18 32 -33 60 -33 62 0 3 11 6
26 8 24 3 23 6 -61 138 -47 74 -89 144 -94 155 -5 12 -16 27 -24 34 -18 14 -8
27 -107 -139 -35 -58 -74 -121 -87 -140 -29 -44 -29 -50 2 -50 14 0 25 -2 25
-4 0 -8 -43 -80 -57 -97 -12 -15 -53 -88 -53 -96 0 -2 14 -3 30 -3 36 0 37 -7
5 -54 -14 -20 -25 -39 -25 -41 0 -2 -23 -40 -50 -84 -28 -44 -50 -83 -50 -86
0 -3 11 -5 25 -5 14 0 25 -2 25 -5 0 -3 -34 -62 -75 -130 -41 -68 -75 -126
-75 -129 0 -3 16 -6 35 -6 19 0 35 -5 35 -11 0 -5 -13 -35 -30 -65 -16 -29
-44 -80 -61 -111 -18 -32 -38 -67 -45 -78 -23 -32 -17 -45 21 -45 19 0 35 -4
35 -9 0 -5 -31 -74 -70 -154 -63 -131 -78 -167 -66 -167 2 0 50 24 108 54 139
71 213 103 378 161 41 15 87 31 103 37 l27 10 0 269 0 269 145 0 c122 0 145 2
145 15 0 13 -30 15 -207 15 l-208 0 165 165 c139 139 169 165 194 165 l30 0
-30 -31 c-55 -59 -5 -24 69 48 l74 72 74 -75 c40 -40 78 -74 83 -74 5 0 -3 14
-19 30 l-29 30 94 0 94 0 -29 -30 c-16 -16 -25 -30 -20 -30 5 0 43 34 85 75
l75 75 75 -75 c41 -41 79 -75 84 -75 5 0 -3 14 -19 30 l-29 30 37 0 c36 0 37
1 37 40 l0 40 40 0 40 0 0 -40 0 -40 117 0 118 0 -160 -160 c-127 -127 -157
-162 -147 -172 10 -10 56 31 227 202 l215 215 265 -265 c146 -146 265 -268
265 -272 0 -5 -25 -8 -55 -8 l-55 0 2 -212 3 -212 110 -34 c156 -48 308 -108
435 -171 8 -4 45 -25 83 -45 37 -21 67 -34 67 -29 0 4 -31 71 -69 148 -92 189
-91 185 -47 185 20 0 36 3 36 6 0 8 -119 233 -137 259 -22 32 -16 45 22 45 19
0 35 3 35 6 0 6 -84 147 -111 186 -27 37 -24 58 6 58 31 0 31 5 2 44 -34 44
-137 215 -137 227 0 5 14 9 30 9 31 0 37 9 21 26 -11 10 -111 173 -111 180 0
2 12 4 26 4 14 0 24 3 22 8 -5 11 -74 128 -136 231 -31 52 -62 96 -67 98 -10
3 -70 -88 -166 -254 l-47 -82 29 -3 29 -3 -46 -70 c-33 -50 -44 -62 -39 -41
19 89 19 86 -9 86 l-27 0 17 33 c9 17 34 58 56 91 28 42 37 64 32 80 -13 40
-175 308 -189 313 -6 2 -35 -37 -65 -87 -56 -91 -70 -106 -70 -71 0 11 -5 23
-11 27 -6 3 -8 16 -5 27 4 15 -14 52 -56 122 -34 55 -71 118 -84 140 -28 48
-80 112 -86 105 -3 -3 -38 -59 -78 -125 -40 -66 -95 -155 -121 -198 -27 -43
-49 -82 -49 -87 0 -6 14 -10 30 -10 17 0 30 -2 30 -5 0 -11 -83 -145 -87 -141
-3 2 0 21 6 43 16 57 14 63 -19 63 -35 0 -35 4 -10 45 11 17 29 47 40 68 l20
37 -82 0 c-67 1 -79 3 -63 12 11 6 22 12 24 14 2 2 -26 50 -63 108 -36 58 -66
108 -66 111 0 4 -11 21 -25 39 -14 18 -25 38 -25 43 0 6 -6 16 -14 22 -12 10
-17 8 -28 -11z"/>
<path d="M1590 2685 l0 -45 60 0 60 0 0 45 0 45 -60 0 -60 0 0 -45z"/>
<path d="M2000 2685 l0 -45 60 0 60 0 0 45 0 45 -60 0 -60 0 0 -45z"/>
<path d="M2560 2335 l0 -55 55 0 55 0 0 55 0 55 -55 0 -55 0 0 -55z"/>
<path d="M2740 2335 l0 -55 55 0 55 0 0 55 0 55 -55 0 -55 0 0 -55z"/>
<path d="M2560 2155 l0 -55 55 0 55 0 0 55 0 55 -55 0 -55 0 0 -55z"/>
<path d="M2740 2155 l0 -55 55 0 55 0 0 55 0 55 -55 0 -55 0 0 -55z"/>
<path d="M1855 1944 c-214 -23 -570 -102 -715 -159 -19 -7 -61 -23 -92 -35
-68 -26 -69 -31 -30 -127 75 -184 235 -393 396 -517 141 -109 291 -189 409
-220 32 -8 61 -17 65 -20 5 -3 44 -13 88 -23 108 -24 449 -24 539 -1 70 19
143 44 167 58 10 6 23 10 30 10 7 0 48 17 93 37 220 102 451 313 567 518 36
64 122 255 116 259 -58 39 -453 156 -598 178 -36 5 -92 14 -125 19 -242 38
-667 49 -910 23z"/>
</g>
</svg>
