<?xml version="1.0" encoding="iso-8859-1"?>
<!-- Generator: Adobe Illustrator 16.0.0, SVG Export Plug-In . SVG Version: 6.00 Build 0)  -->
<!DOCTYPE svg PUBLIC "-//W3C//DTD SVG 1.1//EN" "http://www.w3.org/Graphics/SVG/1.1/DTD/svg11.dtd">
<svg version="1.1" id="Capa_1" xmlns="http://www.w3.org/2000/svg" xmlns:xlink="http://www.w3.org/1999/xlink" x="0px" y="0px"
	 width="618.202px" height="618.202px" viewBox="0 0 618.202 618.202" style="enable-background:new 0 0 618.202 618.202;"
	 xml:space="preserve">
<g>
	<path style="fill:#27241F;" d="M191.977,134.754c0,7.485-6.708,13.543-14.999,13.543c-8.282,0-14.989-6.058-14.989-13.543V73.99
		c0-7.485,6.708-13.544,14.989-13.544c8.292,0,14.999,6.059,14.999,13.544V134.754L191.977,134.754z M485.979,0H132.232
		c-23.873,0-43.243,20.754-43.243,46.357v160.765h440.214V46.357C529.213,20.754,509.853,0,485.979,0L485.979,0z"/>
	<path style="fill:#27241F;" d="M161.989,329.096c0-9.898,6.708-17.929,14.989-17.929c8.292,0,14.999,8.03,14.999,17.929v80.461
		c0,9.907-6.708,17.919-14.999,17.919c-8.282,0-14.989-8.012-14.989-17.919V329.096L161.989,329.096z M88.999,578.286
		c0,22.054,19.37,39.916,43.243,39.916h353.756c23.854,0,43.215-17.862,43.215-39.916V237.178H88.999V578.286L88.999,578.286z"/>
</g>
<g>
</g>
<g>
</g>
<g>
</g>
<g>
</g>
<g>
</g>
<g>
</g>
<g>
</g>
<g>
</g>
<g>
</g>
<g>
</g>
<g>
</g>
<g>
</g>
<g>
</g>
<g>
</g>
<g>
</g>
</svg>
